<svg height="15" viewBox="0 0 21 15" width="21" xmlns="http://www.w3.org/2000/svg" xmlns:xlink="http://www.w3.org/1999/xlink"><linearGradient id="a" x1="50%" x2="50%" y1="0%" y2="100%"><stop offset="0" stop-color="#fff"/><stop offset="1" stop-color="#f0f0f0"/></linearGradient><linearGradient id="b" x1="50%" x2="50%" y1="0%" y2="100%"><stop offset="0" stop-color="#04aac8"/><stop offset="1" stop-color="#009ab6"/></linearGradient><linearGradient id="c" x1="50%" x2="50%" y1="0%" y2="100%"><stop offset="0" stop-color="#23c840"/><stop offset="1" stop-color="#1eb639"/></linearGradient><g fill="none" fill-rule="evenodd"><path d="m0 0h21v15h-21z" fill="url(#a)"/><path d="m0 0h21v5h-21z" fill="url(#b)"/><path d="m0 10h21v5h-21z" fill="url(#c)"/><g fill="url(#a)"><path d="m0 5h21v5h-21z"/><path d="m4.33356893 1.25274924c-.23839638-.15964264-.52510955-.25274924-.83356893-.25274924-.82842712 0-1.5.67157288-1.5 1.5s.67157288 1.5 1.5 1.5c.30845938 0 .59517255-.0931066.83356893-.25274924-.02762077.0018232-.05548671.00274924-.08356893.00274924-.69035594 0-1.25-.55964406-1.25-1.25s.55964406-1.25 1.25-1.25c.02808222 0 .05594816.00092604.08356893.00274924zm1.16643107 2.74725076c-.27614237 0-.5-.22385763-.5-.5s.22385763-.5.5-.5.5.22385763.5.5-.22385763.5-.5.5zm2-2c-.27614237 0-.5-.22385763-.5-.5s.22385763-.5.5-.5.5.22385763.5.5-.22385763.5-.5.5zm2 0c-.27614237 0-.5-.22385763-.5-.5s.22385763-.5.5-.5.5.22385763.5.5-.22385763.5-.5.5zm0 2c-.27614237 0-.5-.22385763-.5-.5s.22385763-.5.5-.5.5.22385763.5.5-.22385763.5-.5.5zm-2 0c-.27614237 0-.5-.22385763-.5-.5s.22385763-.5.5-.5.5.22385763.5.5-.22385763.5-.5.5z"/></g></g></svg>